<?xml version="1.0" encoding="UTF-8"?>
<svg id="Layer_1" xmlns="http://www.w3.org/2000/svg" version="1.1" viewBox="0 0 800 800">
  <!-- Generator: Adobe Illustrator 29.3.1, SVG Export Plug-In . SVG Version: 2.1.0 Build 151)  -->
  <defs>
    <style>
      .st0 {
        fill: #fff;
      }
    </style>
  </defs>
  <path class="st0" d="M123.4,123.4c11.2-11.2,29.2-11.2,40.4,0l542.1,542.1c11.2,11.2,11.2,29.2,0,40.4-11.2,11.2-29.2,11.2-40.4,0L123.4,163.9c-11.2-11.2-11.2-29.2,0-40.4Z"/>
  <path class="st0" d="M123.4,705.9c-11.2-11.2-11.2-29.2,0-40.4L665.5,123.4c11.2-11.2,29.2-11.2,40.4,0,11.2,11.2,11.2,29.2,0,40.4L163.9,705.9c-11.2,11.2-29.2,11.2-40.4,0Z"/>
</svg>